<!-- Exported by Character Map UWP -->
<svg height="100%" viewBox="128 0 768 1024" width="100%" xmlns="http://www.w3.org/2000/svg" xmlns:xlink="http://www.w3.org/1999/xlink">
  <path d="M128,897L128,127C128,109.333 131.417,92.8334 138.25,77.5C145.083,62.1667 154.25,48.75 165.75,37.25C177.25,25.75 190.75,16.6667 206.25,10C221.75,3.33337 238.333,0 256,0C282.333,0 306.667,7.66669 329,23L813.5,356C839.5,374 859.75,396.667 874.25,424C888.75,451.333 896,480.667 896,512C896,543.333 888.75,572.667 874.25,600C859.75,627.333 839.5,650 813.5,668L329,1001C306.667,1016.33 282.333,1024 256,1024C238.333,1024 221.75,1020.67 206.25,1014C190.75,1007.33 177.25,998.25 165.75,986.75C154.25,975.25 145.083,961.833 138.25,946.5C131.417,931.167 128,914.667 128,897Z" fill="#9f9f9f" fill-opacity="1">
  </path>
</svg>
