<!-- Exported by Character Map UWP -->
<svg height="100%" viewBox="0 128 1024 768" width="100%" xmlns="http://www.w3.org/2000/svg" xmlns:xlink="http://www.w3.org/1999/xlink">
  <path d="M0,256C0,238.667 3.33333,222.167 10,206.5C16.6667,190.833 25.75,177.25 37.25,165.75C48.75,154.25 62.1667,145.083 77.5,138.25C92.8333,131.417 109.333,128 127,128L897.5,128C914.833,128 931.25,131.333 946.75,138C962.25,144.667 975.667,153.833 987,165.5C998.333,177.167 1007.33,190.75 1014,206.25C1020.67,221.75 1024,238.167 1024,255.5C1024,269.5 1022.08,282.333 1018.25,294C1014.42,305.667 1008.67,317.333 1001,329L668,813.5C650.333,839.167 627.75,859.333 600.25,874C572.75,888.667 543.333,896 512,896C480.667,896 451.25,888.667 423.75,874C396.25,859.333 373.667,839.167 356,813.5L23,329C15.3333,317.667 9.58333,306.167 5.75,294.5C1.91667,282.833 0,270 0,256Z" fill="#9f9f9f" fill-opacity="1">
  </path>
</svg>
