<!-- Exported by Character Map UWP -->
<svg height="100%" viewBox="128 0 768 1024" width="100%" xmlns="http://www.w3.org/2000/svg" xmlns:xlink="http://www.w3.org/1999/xlink">
  <path d="M128,512C128,480.667 135.333,451.25 150,423.75C164.667,396.25 184.833,373.667 210.5,356L695,23C706.333,15.3334 717.833,9.58337 729.5,5.75C741.167,1.91669 754,0 768,0C785.333,0 801.833,3.33337 817.5,10C833.167,16.6667 846.75,25.75 858.25,37.25C869.75,48.75 878.917,62.1667 885.75,77.5C892.583,92.8334 896,109.333 896,127L896,897C896,914.667 892.583,931.167 885.75,946.5C878.917,961.833 869.75,975.25 858.25,986.75C846.75,998.25 833.167,1007.33 817.5,1014C801.833,1020.67 785.333,1024 768,1024C741.667,1024 717.333,1016.33 695,1001L210.5,668C184.833,650.333 164.667,627.75 150,600.25C135.333,572.75 128,543.333 128,512Z" fill="#9f9f9f" fill-opacity="1">
  </path>
</svg>
