<!-- Exported by Character Map UWP -->
<svg height="100%" viewBox="0 133 1024 763" width="100%" xmlns="http://www.w3.org/2000/svg" xmlns:xlink="http://www.w3.org/1999/xlink">
  <path d="M127,896C109.333,896 92.8333,892.583 77.5,885.75C62.1667,878.917 48.75,869.75 37.25,858.25C25.75,846.75 16.6667,833.25 10,817.75C3.33333,802.25 0,785.667 0,768C0,754 1.91667,741.167 5.75,729.5C9.58333,717.833 15.3333,706.333 23,695L356,210.5C364.667,197.833 374.833,186.667 386.5,177C398.167,167.333 410.75,159.25 424.25,152.75C437.75,146.25 452,141.333 467,138C482,134.667 497,133 512,133C527,133 542,134.667 557,138C572,141.333 586.25,146.25 599.75,152.75C613.25,159.25 625.833,167.333 637.5,177C649.167,186.667 659.333,197.833 668,210.5L1001,695C1008.67,706.333 1014.42,717.833 1018.25,729.5C1022.08,741.167 1024,754 1024,768C1024,785.667 1020.67,802.25 1014,817.75C1007.33,833.25 998.333,846.75 987,858.25C975.667,869.75 962.25,878.917 946.75,885.75C931.25,892.583 914.833,896 897.5,896Z" fill="#9f9f9f" fill-opacity="1">
  </path>
</svg>
