<!-- Exported by Character Map UWP -->
<svg height="100%" viewBox="342 171 384 683" width="100%" xmlns="http://www.w3.org/2000/svg" xmlns:xlink="http://www.w3.org/1999/xlink">
  <path d="M341.5,810.5C341.5,798.833 345.667,788.833 354,780.5L622.5,512L354,243.5C345.667,235.167 341.5,225.167 341.5,213.5C341.5,201.833 345.583,191.75 353.75,183.25C361.917,174.75 372,170.5 384,170.5C395.667,170.5 405.667,174.667 414,183L713,482C721.333,490.333 725.5,500.333 725.5,512C725.5,523.667 721.333,533.667 713,542L414,841C405.667,849.333 395.667,853.5 384,853.5C372,853.5 361.917,849.25 353.75,840.75C345.583,832.25 341.5,822.167 341.5,810.5Z" fill="#FFFFFF" fill-opacity="1">
  </path>
</svg>