<!-- Exported by Character Map UWP -->
<svg height="100%" viewBox="171 341 683 385" width="100%" xmlns="http://www.w3.org/2000/svg" xmlns:xlink="http://www.w3.org/1999/xlink">
  <path d="M170.5,384C170.5,378 171.667,372.417 174,367.25C176.333,362.083 179.417,357.583 183.25,353.75C187.083,349.917 191.583,346.833 196.75,344.5C201.917,342.167 207.5,341 213.5,341C219.833,341 225.333,342.083 230,344.25C234.667,346.417 239.167,349.667 243.5,354L512,622.5L780.5,354C789.167,345.333 799.167,341 810.5,341C816.5,341 822.083,342.167 827.25,344.5C832.417,346.833 836.917,349.917 840.75,353.75C844.583,357.583 847.667,362.083 850,367.25C852.333,372.417 853.5,378 853.5,384C853.5,395.667 849.333,405.667 841,414L542,713C533.667,721.333 523.667,725.5 512,725.5C500.333,725.5 490.333,721.333 482,713L183,414C174.667,405.667 170.5,395.667 170.5,384Z" fill="#FFFFFF" fill-opacity="1">
  </path>
</svg>