<!-- Exported by Character Map UWP -->
<svg height="100%" viewBox="299 171 385 683" width="100%" xmlns="http://www.w3.org/2000/svg" xmlns:xlink="http://www.w3.org/1999/xlink">
  <path d="M298.5,512C298.5,500.333 302.667,490.333 311,482L610,183C618.333,174.667 628.333,170.5 640,170.5C646,170.5 651.583,171.667 656.75,174C661.917,176.333 666.417,179.417 670.25,183.25C674.083,187.083 677.167,191.583 679.5,196.75C681.833,201.917 683,207.5 683,213.5C683,224.833 678.667,234.833 670,243.5L401.5,512L670,780.5C674.333,784.833 677.583,789.333 679.75,794C681.917,798.667 683,804.167 683,810.5C683,816.5 681.833,822.083 679.5,827.25C677.167,832.417 674.083,836.917 670.25,840.75C666.417,844.583 661.917,847.667 656.75,850C651.583,852.333 646,853.5 640,853.5C628.333,853.5 618.333,849.333 610,841L311,542C302.667,533.667 298.5,523.667 298.5,512Z" fill="#FFFFFF" fill-opacity="1">
  </path>
</svg>