<!-- Exported by Character Map UWP -->
<svg height="100%" viewBox="32 32 960 960" width="100%" xmlns="http://www.w3.org/2000/svg" xmlns:xlink="http://www.w3.org/1999/xlink">
  <path d="M32,512C32,467.667 37.6667,425.083 49,384.25C60.3333,343.417 76.4167,305.167 97.25,269.5C118.083,233.833 143.083,201.417 172.25,172.25C201.417,143.083 233.833,118.083 269.5,97.25C305.167,76.4167 343.417,60.3334 384.25,49C425.083,37.6667 467.667,32 512,32C556.333,32 598.917,37.6667 639.75,49C680.583,60.3334 718.833,76.4167 754.5,97.25C790.167,118.083 822.583,143.083 851.75,172.25C880.917,201.417 905.917,233.833 926.75,269.5C947.583,305.167 963.667,343.417 975,384.25C986.333,425.083 992,467.667 992,512C992,556.333 986.333,598.917 975,639.75C963.667,680.583 947.583,718.833 926.75,754.5C905.917,790.167 880.917,822.583 851.75,851.75C822.583,880.917 790.167,905.917 754.5,926.75C718.833,947.583 680.583,963.667 639.75,975C598.917,986.333 556.333,992 512,992C467.667,992 425,986.333 384,975C343,963.667 304.75,947.583 269.25,926.75C233.75,905.917 201.417,880.917 172.25,851.75C143.083,822.583 118.083,790.25 97.25,754.75C76.4167,719.25 60.3333,681 49,640C37.6667,599 32,556.333 32,512Z" fill="#FFFFFF" fill-opacity="1">
  </path>
</svg>